<?xml version="1.0" encoding="utf-8"?><svg width="500" height="369" xmlns="http://www.w3.org/2000/svg"><g fill="none" fill-rule="evenodd"><path d="M213.738 193.756s34.235.018 48.883-8.19c0 0-65.177 51.807-155.868 183.407 0 0 266.863-320.96 332.829-266.029 0 0 2.992 1.454 4.685-6.441 0 0 12.58-59.4-42.986-67.548 0 0-2.815-45.065-92.536-20.911C234.64 27.996 205.978 62.728 75.153 63.072c0 0 58.96 17.97 142.065-7.858 58.614-18.22 116.648-49.247 160.11-37.275 0 0 14.113 4.56 13.912 15.865 0 0-.014 1.257 3.39 1.642 0 0 41.47 4.311 38.8 49.922 0 0-37.21-14.942-115.731 45.121 0 0-3.515-63.873-100.188-45.076-52.803 10.265-93.913 14.898-141.815-4.147l4.946 5.94s42.568 21.725 107.561 13.396c69.19-8.862 96.097-6.445 106.059 23.44 10.22 30.658-28.744 58.59-62.733 58.004 0 0-3.654 3.11-17.79 11.71" fill="#E0AA26"/><path d="M84.488 109.395s31.07 16.222 110.745 4.684c51.977-7.526 76.763-9.376 84.087 12.6 9.958 29.873-33.693 43.362-33.693 43.362s39.888-36.117-16.73-42.14c-20.585-2.191-28.2-1.535-53.872-.876-45.706 1.168-78.634-8.58-85.642-11.649 0 0-3.1-3.702-4.895-5.98M382.278 32.016c-8.416 7.292-8.928 7.556-29.424 4.098-.118-.025-.234-.04-.35-.06-1.22-.208-2.501-.423-3.866-.655-24.684-4.18-34.236 7.962-34.236 7.962 2.588.398 6.14 1.443 9.357 3.383 3.102 1.876.195 2.388.195 2.388L287.33 59.283c-2.938.73-2.632 2.258-1.537 2.474 1.151.23 5.584-.625 5.584-.625l42.732-8.616c6.488 7.61 15.38 7.322 15.38 7.322l.413-3.675c-6.85-1.034-10.02-5.217-11.185-8.96-1.03-3.316-.346-6.106-.346-6.106 1.68-.2 4.298-.28 6.212-.316a7.221 7.221 0 0 0-.396 2.338 7.166 7.166 0 0 0 14.33 0c0-.405-.042-.803-.107-1.19 3.343.564 5.318 1.11 5.318 1.11.596 8.163-7.47 12.007-7.47 12.007l1.596 3.168c10.233-4.927 11.715-13.819 11.715-13.819 7.165 1.593 13.505-11.584 13.505-11.584 1.258-2.504-.796-.795-.796-.795" fill="#E0AA26"/><path d="M41.902 346.81c-4.709 1.296-9.624 2.115-14.538 2.115-14.196 0-25.662-8.054-25.662-23.206 0-14.674 11.261-23.684 25.39-23.684 3.548 0 7.165.41 10.578 1.366v9.487h-.34c-2.322-2.184-6.553-3.618-10.033-3.618-8.873 0-12.696 6.21-12.696 14.47 0 8.395 2.936 18.086 12.832 18.086.887 0 1.842 0 2.73-.203V331.52c0-3.07-.136-4.708-2.594-6.62v-.205h14.333v22.116" fill="#253177"/><path d="M41.902 346.81c-4.709 1.296-9.624 2.115-14.538 2.115-14.196 0-25.662-8.054-25.662-23.206 0-14.674 11.261-23.684 25.39-23.684 3.548 0 7.165.41 10.578 1.366v9.487h-.34c-2.322-2.184-6.553-3.618-10.033-3.618-8.873 0-12.696 6.21-12.696 14.47 0 8.395 2.936 18.086 12.832 18.086.887 0 1.842 0 2.73-.203V331.52c0-3.07-.136-4.708-2.594-6.62v-.205h14.333v22.116z" stroke="#253177" stroke-width=".3"/><path d="M57.736 323.604c0-7.03 3.549-14.743 11.603-14.743 9.35 0 12.423 11.125 12.423 18.906 0 3.343-.479 6.826-2.526 9.556-2.184 2.934-5.46 4.778-9.078 4.778-3.89 0-7.302-2.596-9.214-5.87-1.911-3.414-3.208-8.668-3.208-12.627zm-13.24 1.843c0 14.4 10.851 23.478 24.843 23.478 13.856 0 25.662-8.668 25.662-23.546 0-15.015-10.51-23.344-24.843-23.344-13.854 0-25.662 8.874-25.662 23.412z" fill="#253177"/><path d="M57.736 323.604c0-7.03 3.549-14.743 11.603-14.743 9.35 0 12.423 11.125 12.423 18.906 0 3.343-.479 6.826-2.526 9.556-2.184 2.934-5.46 4.778-9.078 4.778-3.89 0-7.302-2.596-9.214-5.87-1.911-3.414-3.208-8.668-3.208-12.627zm-13.24 1.843c0 14.4 10.851 23.478 24.843 23.478 13.856 0 25.662-8.668 25.662-23.546 0-15.015-10.51-23.344-24.843-23.344-13.854 0-25.662 8.874-25.662 23.412z" stroke="#253177" stroke-width=".3"/><path d="M111.245 340.326c2.186 1.024 4.71 1.159 7.168 1.159 3.753 0 6.688-.75 9.692-3.003l-2.594 9.556H95.752v-.204c3.345-2.116 2.868-5.939 2.868-9.488v-25.458c0-3.549.477-7.44-2.868-9.556v-.204h18.361v.204c-3.345 2.116-2.868 6.007-2.868 9.624v27.37" fill="#253177"/><path d="M111.245 340.326c2.186 1.024 4.71 1.159 7.168 1.159 3.753 0 6.688-.75 9.692-3.003l-2.594 9.556H95.752v-.204c3.345-2.116 2.868-5.939 2.868-9.488v-25.458c0-3.549.477-7.44-2.868-9.556v-.204h18.361v.204c-3.345 2.116-2.868 6.007-2.868 9.624v27.37z" stroke="#253177" stroke-width=".3"/><path d="M144.007 310.84c1.501-.272 3.003-.476 4.504-.476 8.395 0 10.853 8.395 10.853 15.423 0 3.618-.547 7.303-2.389 10.443-2.253 3.755-4.983 5.05-9.283 5.05-1.229 0-2.456-.136-3.685-.544v-29.897zm-12.627 27.438c0 3.548.478 7.44-2.866 9.556v.204h15.357c7.644 0 14.47.342 20.68-4.642 5.256-4.162 8.054-10.987 8.054-17.609 0-7.37-3.07-14.4-9.214-18.701-6.143-4.3-13.037-3.958-20.407-3.958h-14.47v.204c1.229.616 2.252 2.116 2.526 3.481.34 1.98.34 8.191.34 10.511v20.954z" fill="#253177"/><path d="M144.007 310.84c1.501-.272 3.003-.476 4.504-.476 8.395 0 10.853 8.395 10.853 15.423 0 3.618-.547 7.303-2.389 10.443-2.253 3.755-4.983 5.05-9.283 5.05-1.229 0-2.456-.136-3.685-.544v-29.897zm-12.627 27.438c0 3.548.478 7.44-2.866 9.556v.204h15.357c7.644 0 14.47.342 20.68-4.642 5.256-4.162 8.054-10.987 8.054-17.609 0-7.37-3.07-14.4-9.214-18.701-6.143-4.3-13.037-3.958-20.407-3.958h-14.47v.204c1.229.616 2.252 2.116 2.526 3.481.34 1.98.34 8.191.34 10.511v20.954z" stroke="#253177" stroke-width=".3"/><path d="M188.849 340.46c2.252.89 4.778 1.025 7.166 1.025 3.822 0 7.37-.614 9.965-3.755h.342l-2.732 10.308h-30.234v-.204c3.343-2.116 2.866-5.939 2.866-9.488v-25.527c0-3.55.477-7.44-2.866-9.487v-.204h23.887c1.024 0 2.117 0 2.867-.342h.205v9.898h-.205c-1.843-3.21-5.734-2.868-9.077-2.868h-2.184v11.059h6.346c.956 0 1.911-.07 2.526-.344h.342v9.556h-.342c-.955-2.73-4.094-2.458-6.62-2.458h-2.252v12.831" fill="#253177"/><path d="M188.849 340.46c2.252.89 4.778 1.025 7.166 1.025 3.822 0 7.37-.614 9.965-3.755h.342l-2.732 10.308h-30.234v-.204c3.343-2.116 2.866-5.939 2.866-9.488v-25.527c0-3.55.477-7.44-2.866-9.487v-.204h23.887c1.024 0 2.117 0 2.867-.342h.205v9.898h-.205c-1.843-3.21-5.734-2.868-9.077-2.868h-2.184v11.059h6.346c.956 0 1.911-.07 2.526-.344h.342v9.556h-.342c-.955-2.73-4.094-2.458-6.62-2.458h-2.252v12.831z" stroke="#253177" stroke-width=".3"/><path d="M248.433 349.471c-2.39 0-6.143-1.705-8.19-2.73-5.052-2.526-6.348-4.846-9.693-9.214l-13.104-17.473h-.205v18.02c0 3.957.068 6.961 3.003 9.76v.204H207.07v-.204c3.004-2.799 3.072-5.803 3.072-9.76v-23.548c0-5.256-.274-7.098-3.96-11.194v-.204h14.197v.204l20.954 27.438v-17.677c0-3.96-.068-6.962-3.003-9.76v-.205h13.105v.204c-2.936 2.799-3.003 5.802-3.003 9.76v36.38" fill="#253177"/><path d="M248.433 349.471c-2.39 0-6.143-1.705-8.19-2.73-5.052-2.526-6.348-4.846-9.693-9.214l-13.104-17.473h-.205v18.02c0 3.957.068 6.961 3.003 9.76v.204H207.07v-.204c3.004-2.799 3.072-5.803 3.072-9.76v-23.548c0-5.256-.274-7.098-3.96-11.194v-.204h14.197v.204l20.954 27.438v-17.677c0-3.96-.068-6.962-3.003-9.76v-.205h13.105v.204c-2.936 2.799-3.003 5.802-3.003 9.76v36.38z" stroke="#253177" stroke-width=".3"/><path d="M289.793 338.278c0 3.548-.478 7.44 2.866 9.556v.204H274.3v-.204c3.345-2.116 2.866-6.008 2.866-9.556v-25.39c0-3.549.48-7.44-2.865-9.556v-.204h18.36v.204c-3.413 2.116-2.867 6.007-2.867 9.556v7.78h12.218v-7.78c0-3.549.475-7.44-2.868-9.556v-.204h18.36v.204c-3.344 2.116-2.867 6.007-2.867 9.556v25.39c0 3.548-.477 7.44 2.867 9.556v.204h-18.36v-.204c3.343-2.116 2.868-6.008 2.868-9.556v-10.715h-12.218v10.715" fill="#253177"/><path d="M289.793 338.278c0 3.548-.478 7.44 2.866 9.556v.204H274.3v-.204c3.345-2.116 2.866-6.008 2.866-9.556v-25.39c0-3.549.48-7.44-2.865-9.556v-.204h18.36v.204c-3.413 2.116-2.867 6.007-2.867 9.556v7.78h12.218v-7.78c0-3.549.475-7.44-2.868-9.556v-.204h18.36v.204c-3.344 2.116-2.867 6.007-2.867 9.556v25.39c0 3.548-.477 7.44 2.867 9.556v.204h-18.36v-.204c3.343-2.116 2.868-6.008 2.868-9.556v-10.715h-12.218v10.715z" stroke="#253177" stroke-width=".3"/><path d="M343.234 328.109h-9.283l4.505-13.446h.069l4.71 13.446zm2.251 6.346l2.253 6.621c.41 1.092.547 1.434.547 2.594 0 2.184-1.23 3.14-2.8 4.164v.204h20.614v-.204c-3.892-3.619-4.234-5.188-5.87-9.556l-12.9-35.15h-16.721v.204c1.365.887 2.59 2.116 2.59 3.96 0 1.431-1.089 4.095-1.5 5.46l-9.417 27.233c-1.23 3.48-2.118 5.46-4.71 7.849v.204h13.992v-.204c-1.23-1.023-2.46-1.913-2.46-3.823 0-1.433.753-3.55 1.23-4.916l1.64-4.64h13.512z" fill="#253177"/><path d="M343.234 328.109h-9.283l4.505-13.446h.069l4.71 13.446zm2.251 6.346l2.253 6.621c.41 1.092.547 1.434.547 2.594 0 2.184-1.23 3.14-2.8 4.164v.204h20.614v-.204c-3.892-3.619-4.234-5.188-5.87-9.556l-12.9-35.15h-16.721v.204c1.365.887 2.59 2.116 2.59 3.96 0 1.431-1.089 4.095-1.5 5.46l-9.417 27.233c-1.23 3.48-2.118 5.46-4.71 7.849v.204h13.992v-.204c-1.23-1.023-2.46-1.913-2.46-3.823 0-1.433.753-3.55 1.23-4.916l1.64-4.64h13.512z" stroke="#253177" stroke-width=".3"/><path d="M382.817 348.79c-2.386-.275-5.117-1.434-7.166-2.663-4.366-2.594-5.255-5.187-6.62-9.827l-7.44-25.528c-.885-3.072-1.978-5.459-4.436-7.44v-.204h14.81v.068l8.328 31.055h.204l4.78-18.702c.34-1.365 1.023-3.82 1.023-5.185 0-2.05-1.434-5.735-3.072-7.032v-.204h14.333v.204c-.136.274-.274.751-.274 1.161 0 2.593.82 4.914 1.571 7.37l6.552 22.388h.206l5.733-20.34c.477-1.637 1.16-3.753 1.16-5.46 0-2.048-1.025-3.753-2.321-5.119v-.204h11.535v.204l-13.993 45.593c-2.456-.545-4.844-1.639-7.028-2.865-3.481-1.913-4.642-4.234-5.735-7.85l-5.05-16.517-7.1 27.097" fill="#253177"/><path d="M382.817 348.79c-2.386-.275-5.117-1.434-7.166-2.663-4.366-2.594-5.255-5.187-6.62-9.827l-7.44-25.528c-.885-3.072-1.978-5.459-4.436-7.44v-.204h14.81v.068l8.328 31.055h.204l4.78-18.702c.34-1.365 1.023-3.82 1.023-5.185 0-2.05-1.434-5.735-3.072-7.032v-.204h14.333v.204c-.136.274-.274.751-.274 1.161 0 2.593.82 4.914 1.571 7.37l6.552 22.388h.206l5.733-20.34c.477-1.637 1.16-3.753 1.16-5.46 0-2.048-1.025-3.753-2.321-5.119v-.204h11.535v.204l-13.993 45.593c-2.456-.545-4.844-1.639-7.028-2.865-3.481-1.913-4.642-4.234-5.735-7.85l-5.05-16.517-7.1 27.097z" stroke="#253177" stroke-width=".3"/><path d="M462.741 343.26c1.093 1.775 2.39 3.413 3.96 4.574v.204c-15.768 0-16.79 0-21.295-7.78l-7.1-12.218v10.238c0 3.548-.476 7.44 2.868 9.556v.204h-18.36v-.204c3.345-2.116 2.866-6.008 2.866-9.556v-25.39c0-3.618.48-7.44-2.865-9.556v-.204h18.36v.204c-3.345 2.116-2.868 6.007-2.868 9.556v10.442l8.53-10.852c1.163-1.433 3.141-3.48 3.141-5.459 0-1.775-1.433-2.936-2.73-3.687v-.204h16.723v.204l-15.085 18.02 13.855 21.908" fill="#253177"/><path d="M462.741 343.26c1.093 1.775 2.39 3.413 3.96 4.574v.204c-15.768 0-16.79 0-21.295-7.78l-7.1-12.218v10.238c0 3.548-.476 7.44 2.868 9.556v.204h-18.36v-.204c3.345-2.116 2.866-6.008 2.866-9.556v-25.39c0-3.618.48-7.44-2.865-9.556v-.204h18.36v.204c-3.345 2.116-2.868 6.007-2.868 9.556v10.442l8.53-10.852c1.163-1.433 3.141-3.48 3.141-5.459 0-1.775-1.433-2.936-2.73-3.687v-.204h16.723v.204l-15.085 18.02 13.855 21.908z" stroke="#253177" stroke-width=".3"/><path d="M465.267 336.64c3.82 3.14 9.417 5.325 14.331 5.325 3.07 0 7.236-1.025 7.236-4.848 0-8.327-20.816-6.62-20.816-21.909 0-3.89 1.91-7.644 5.05-9.895 3.48-2.459 7.711-3.278 11.875-3.278 3.821 0 7.917.683 11.467 2.048v7.986c-2.866-1.843-6.211-3.208-9.624-3.208-2.662 0-5.937 1.16-5.937 4.368 0 3.275 3.959 4.573 6.483 5.665 3.277 1.434 6.348 2.73 9.078 5.12 3.275 2.866 5.05 5.937 5.05 10.306 0 4.436-1.841 8.395-5.46 11.056-4.026 2.935-8.395 3.55-13.241 3.55-4.506 0-9.008-.82-13.241-2.457l-2.251-9.829" fill="#253177"/><path d="M465.267 336.64c3.82 3.14 9.417 5.325 14.331 5.325 3.07 0 7.236-1.025 7.236-4.848 0-8.327-20.816-6.62-20.816-21.909 0-3.89 1.91-7.644 5.05-9.895 3.48-2.459 7.711-3.278 11.875-3.278 3.821 0 7.917.683 11.467 2.048v7.986c-2.866-1.843-6.211-3.208-9.624-3.208-2.662 0-5.937 1.16-5.937 4.368 0 3.275 3.959 4.573 6.483 5.665 3.277 1.434 6.348 2.73 9.078 5.12 3.275 2.866 5.05 5.937 5.05 10.306 0 4.436-1.841 8.395-5.46 11.056-4.026 2.935-8.395 3.55-13.241 3.55-4.506 0-9.008-.82-13.241-2.457l-2.251-9.829z" stroke="#253177" stroke-width=".3"/><path d="M25.38 281.234l.392 4.976c5.477.67 12.133.67 18.393.67 7.043 0 14.22-.267 21.003-2.283.521-1.21.912-2.692 1.303-4.303l3.002-11.298 4.176.271c-.393 1.884-.785 5.379-1.307 9.01l-1.433 14.12c-4.176.67-12.525.536-20.222.67-7.304-.404-14.74-.67-22.307-.67-7.565 0-14.872.266-22.437.67v-4.034c6.13-1.074 7.043-4.979 7.043-15.733v-58.094c0-10.488.133-11.427-12.392-12.105v-4.029c5.87.402 12.003.668 18.395.668 6.391 0 12.522-.266 18.783-.668v4.029c-12.523.678-12.392 1.617-12.392 12.105v66.028" fill="#253177"/><path d="M25.38 281.234l.392 4.976c5.477.67 12.133.67 18.393.67 7.043 0 14.22-.267 21.003-2.283.521-1.21.912-2.692 1.303-4.303l3.002-11.298 4.176.271c-.393 1.884-.785 5.379-1.307 9.01l-1.433 14.12c-4.176.67-12.525.536-20.222.67-7.304-.404-14.74-.67-22.307-.67-7.565 0-14.872.266-22.437.67v-4.034c6.13-1.074 7.043-4.979 7.043-15.733v-58.094c0-10.488.133-11.427-12.392-12.105v-4.029c5.87.402 12.003.668 18.395.668 6.391 0 12.522-.266 18.783-.668v4.029c-12.523.678-12.392 1.617-12.392 12.105v66.028z" stroke="#253177" stroke-width=".3"/><path d="M147.99 274.782c1.694 4.298 3.39 8.738 6.65 11.966 1.436 1.346 4.176 2.15 7.176 2.285v4.034c-5.74-.404-11.48-.67-17.35-.67-5.87 0-11.61.266-17.35.67v-4.034c3.39-.135 6.913-.267 9.785-1.883 1.825-.94 1.956-3.096.912-5.508l-7.956-19.64h-37.05c-1.566 3.634-8.74 19.64-8.74 22.595 0 4.436 6.392 3.764 11.088 4.436v4.034c-4.957-.404-9.915-.67-15.002-.67-5.086 0-10.044.266-15.002.67v-4.034c7.307-1.483 8.217-.267 11.349-7.26l6.392-13.852 17.612-40.613c4.173-9.546 8.48-19.361 11.87-29.048h4.175l31.44 76.522zm-20.483-18.561L111.2 216.147l-16.305 40.074h32.612z" fill="#253177"/><path d="M147.99 274.782c1.694 4.298 3.39 8.738 6.65 11.966 1.436 1.346 4.176 2.15 7.176 2.285v4.034c-5.74-.404-11.48-.67-17.35-.67-5.87 0-11.61.266-17.35.67v-4.034c3.39-.135 6.913-.267 9.785-1.883 1.825-.94 1.956-3.096.912-5.508l-7.956-19.64h-37.05c-1.566 3.634-8.74 19.64-8.74 22.595 0 4.436 6.392 3.764 11.088 4.436v4.034c-4.957-.404-9.915-.67-15.002-.67-5.086 0-10.044.266-15.002.67v-4.034c7.307-1.483 8.217-.267 11.349-7.26l6.392-13.852 17.612-40.613c4.173-9.546 8.48-19.361 11.87-29.048h4.175l31.44 76.522zm-20.483-18.561L111.2 216.147l-16.305 40.074h32.612z" stroke="#253177" stroke-width=".3"/><path d="M170.015 262.138c-.782 19.096 9.653 24.61 26.742 24.61 7.958 0 17.48-2.151 22.178-9.282 4.043-6.046 5.218-14.252 5.218-22.458V212.25c0-7.8-2.35-9.012-10.307-9.012l-2.089-.136v-4.029c5.22.402 10.438.668 15.656.668s10.436.466 15.524.062v3.299l-2.087.136c-8.22 0-10.697 1.211-10.697 9.012v49.619c0 7.399-1.825 13.178-5.74 19.635-2.61 4.3-8.87 9.143-13.566 10.757-4.957 1.75-12.395 2.824-17.611 2.824-11.872 0-26.09-1.881-32.352-13.85-3.263-6.051-3.263-10.893-3.263-17.618v-48.41c0-10.488.132-11.427-12.392-12.105v-4.029c5.87.402 12.001.668 18.394.668 6.392 0 12.524-.266 18.784-.668v4.029c-12.521.678-12.392 1.617-12.392 12.105v46.932" fill="#253177"/><path d="M170.015 262.138c-.782 19.096 9.653 24.61 26.742 24.61 7.958 0 17.48-2.151 22.178-9.282 4.043-6.046 5.218-14.252 5.218-22.458V212.25c0-7.8-2.35-9.012-10.307-9.012l-2.089-.136v-4.029c5.22.402 10.438.668 15.656.668s10.436.466 15.524.062v3.299l-2.087.136c-8.22 0-10.697 1.211-10.697 9.012v49.619c0 7.399-1.825 13.178-5.74 19.635-2.61 4.3-8.87 9.143-13.566 10.757-4.957 1.75-12.395 2.824-17.611 2.824-11.872 0-26.09-1.881-32.352-13.85-3.263-6.051-3.263-10.893-3.263-17.618v-48.41c0-10.488.132-11.427-12.392-12.105v-4.029c5.87.402 12.001.668 18.394.668 6.392 0 12.524-.266 18.784-.668v4.029c-12.521.678-12.392 1.617-12.392 12.105v46.932z" stroke="#253177" stroke-width=".3"/><path d="M297.969 293.067c-2.086-2.823-3.525-5.245-5.352-7.527l-31.045-41.154.522-2.013c4.045.267 8.089.131 12-.542 9.132-1.61 16.96-8.873 16.96-18.826 0-14.523-10.434-18.824-20.09-18.824-4.563 0-9.523.67-13.044 1.748-.785 2.286-.785 5.11-.785 9.277v61.726c0 10.488-.13 11.429 12.395 12.1v4.035c-6.263-.404-12.395-.67-18.785-.67-6.394 0-12.526.266-18.395.67v-4.034c12.525-.672 12.393-1.613 12.393-12.101v-61.726c0-10.488.132-11.427-12.393-12.105l-.072-3.225c7.304.403 14.945-.136 22.642-.136 7.696 0 15.263-.266 22.828-.668 18.004-.943 26.351 9.143 26.351 20.439 0 14.655-12.783 23.398-25.438 25.954l29.613 39.802c2.086 2.555 4.825 3.364 7.436 3.766v4.034h-17.741" fill="#253177"/><path d="M297.969 293.067c-2.086-2.823-3.525-5.245-5.352-7.527l-31.045-41.154.522-2.013c4.045.267 8.089.131 12-.542 9.132-1.61 16.96-8.873 16.96-18.826 0-14.523-10.434-18.824-20.09-18.824-4.563 0-9.523.67-13.044 1.748-.785 2.286-.785 5.11-.785 9.277v61.726c0 10.488-.13 11.429 12.395 12.1v4.035c-6.263-.404-12.395-.67-18.785-.67-6.394 0-12.526.266-18.395.67v-4.034c12.525-.672 12.393-1.613 12.393-12.101v-61.726c0-10.488.132-11.427-12.393-12.105l-.072-3.225c7.304.403 14.945-.136 22.642-.136 7.696 0 15.263-.266 22.828-.668 18.004-.943 26.351 9.143 26.351 20.439 0 14.655-12.783 23.398-25.438 25.954l29.613 39.802c2.086 2.555 4.825 3.364 7.436 3.766v4.034h-17.741z" stroke="#253177" stroke-width=".3"/><path d="M306.447 293.067v-4.034c12.524-.672 12.39-1.613 12.39-12.101v-61.726c0-10.488.134-11.427-12.39-12.105v-4.029c5.87.402 12.001.668 18.395.668 6.387 0 12.522-.266 18.785-.668v4.029c-12.528.678-12.398 1.617-12.398 12.105v61.726c0 10.488-.13 11.429 12.398 12.1v4.035h-37.18" fill="#253177"/><path d="M306.447 293.067v-4.034c12.524-.672 12.39-1.613 12.39-12.101v-61.726c0-10.488.134-11.427-12.39-12.105v-4.029c5.87.402 12.001.668 18.395.668 6.387 0 12.522-.266 18.785-.668v4.029c-12.528.678-12.398 1.617-12.398 12.105v61.726c0 10.488-.13 11.429 12.398 12.1v4.035h-37.18z" stroke="#253177" stroke-width=".3"/><path d="M370.62 274.646c0 4.84.13 8.068.652 11.564 4.825.67 11.48.67 17.743.67 7.044 0 14.217-.267 21-2.283.653-2.018 1.305-4.439 1.565-6.86l1.175-7.396h4.304c-.524 2.824-1.304 6.59-1.304 10.893v11.162c-4.829.67-13.567.537-21.656.67-7.694-.403-15.527-.67-23.48-.67-7.96 0-15.653.267-23.61.67v-4.033c6.52-.267 11.22-3.092 11.22-12.101v-61.726c0-10.488.127-11.427-12.398-12.105v-4.029c7.96.402 15.788.668 23.872.668 8.089 0 16.046-.266 23.873-.668 8.22.131 17.218 0 21.657.668-1.436 4.441-1.955 8.742-2.089 13.045 0 2.827-.39 5.11-.39 7.933h-4.044c-.131-5.245-.913-9.01-1.827-13.173-6.26-2.023-12.913-2.289-19.437-2.289-5.74 0-11.87 0-16.174.673-.523 3.364-.652 6.454-.652 11.16v25.15c28.434.265 30.263 1.88 30.394-11.299h4.303v31.061h-4.303c0-15.192-.912-14.387-30.394-13.313v25.958" fill="#253177"/><path d="M370.62 274.646c0 4.84.13 8.068.652 11.564 4.825.67 11.48.67 17.743.67 7.044 0 14.217-.267 21-2.283.653-2.018 1.305-4.439 1.565-6.86l1.175-7.396h4.304c-.524 2.824-1.304 6.59-1.304 10.893v11.162c-4.829.67-13.567.537-21.656.67-7.694-.403-15.527-.67-23.48-.67-7.96 0-15.653.267-23.61.67v-4.033c6.52-.267 11.22-3.092 11.22-12.101v-61.726c0-10.488.127-11.427-12.398-12.105v-4.029c7.96.402 15.788.668 23.872.668 8.089 0 16.046-.266 23.873-.668 8.22.131 17.218 0 21.657.668-1.436 4.441-1.955 8.742-2.089 13.045 0 2.827-.39 5.11-.39 7.933h-4.044c-.131-5.245-.913-9.01-1.827-13.173-6.26-2.023-12.913-2.289-19.437-2.289-5.74 0-11.87 0-16.174.673-.523 3.364-.652 6.454-.652 11.16v25.15c28.434.265 30.263 1.88 30.394-11.299h4.303v31.061h-4.303c0-15.192-.912-14.387-30.394-13.313v25.958z" stroke="#253177" stroke-width=".3"/><path d="M428.78 215.206c0-10.488.133-11.427-12.392-12.105v-4.029c7.307.402 14.87.668 22.568.668 7.7 0 15.263-.266 22.831-.668 18-.943 26.35 9.143 26.35 20.439 0 14.655-12.784 23.398-25.438 25.954l29.613 39.802c2.087 2.555 4.826 3.364 7.436 3.766v4.034c-2.87-.404-5.87-.67-8.87-.67-3 0-5.873.266-8.871.67-2.089-2.823-3.523-5.245-5.352-7.527l-31.045-41.154.525-2.013c4.042.267 8.084.131 11.997-.542 9.132-1.61 16.962-8.873 16.962-18.826 0-14.523-10.439-18.824-20.09-18.824-4.568 0-9.526.67-13.046 1.748-.785 2.286-.785 5.11-.785 9.277v61.726c0 10.488-.128 11.429 12.395 12.1v4.035c-6.263-.404-12.395-.67-18.785-.67-6.392 0-12.521.266-18.395.67v-4.034c12.525-.672 12.393-1.613 12.393-12.101v-61.726" fill="#253177"/><path d="M428.78 215.206c0-10.488.133-11.427-12.392-12.105v-4.029c7.307.402 14.87.668 22.568.668 7.7 0 15.263-.266 22.831-.668 18-.943 26.35 9.143 26.35 20.439 0 14.655-12.784 23.398-25.438 25.954l29.613 39.802c2.087 2.555 4.826 3.364 7.436 3.766v4.034c-2.87-.404-5.87-.67-8.87-.67-3 0-5.873.266-8.871.67-2.089-2.823-3.523-5.245-5.352-7.527l-31.045-41.154.525-2.013c4.042.267 8.084.131 11.997-.542 9.132-1.61 16.962-8.873 16.962-18.826 0-14.523-10.439-18.824-20.09-18.824-4.568 0-9.526.67-13.046 1.748-.785 2.286-.785 5.11-.785 9.277v61.726c0 10.488-.128 11.429 12.395 12.1v4.035c-6.263-.404-12.395-.67-18.785-.67-6.392 0-12.521.266-18.395.67v-4.034c12.525-.672 12.393-1.613 12.393-12.101v-61.726z" stroke="#253177" stroke-width=".3"/></g></svg>
